<mxfile host="app.diagrams.net" modified="2020-11-05T15:51:10.118Z" agent="5.0 (X11; Linux x86_64) AppleWebKit/537.36 (KHTML, like Gecko) Chrome/85.0.4183.121 Safari/537.36" etag="GQC2Gj2Ba07Dyd-IdlI_" version="13.9.1" type="github">
  <diagram id="ej6Aq2QrI_q-PzAgEksd" name="Page-1">
    <mxGraphModel dx="1036" dy="462" grid="1" gridSize="10" guides="1" tooltips="1" connect="1" arrows="1" fold="1" page="1" pageScale="1" pageWidth="850" pageHeight="1100" math="0" shadow="0">
      <root>
        <mxCell id="0" />
        <mxCell id="1" parent="0" />
        <mxCell id="r4bwIDTA7VvdV9TeNddE-70" value="Alternative" style="shape=umlFrame;whiteSpace=wrap;html=1;" vertex="1" parent="1">
          <mxGeometry x="275" y="370" width="510" height="140" as="geometry" />
        </mxCell>
        <mxCell id="r4bwIDTA7VvdV9TeNddE-53" value="" style="endArrow=none;dashed=1;html=1;" edge="1" parent="1">
          <mxGeometry width="50" height="50" relative="1" as="geometry">
            <mxPoint x="524.5" y="690" as="sourcePoint" />
            <mxPoint x="524.5" y="159" as="targetPoint" />
          </mxGeometry>
        </mxCell>
        <mxCell id="r4bwIDTA7VvdV9TeNddE-1" value="Guest" style="shape=umlActor;verticalLabelPosition=bottom;verticalAlign=top;html=1;outlineConnect=0;" vertex="1" parent="1">
          <mxGeometry x="120" y="80" width="30" height="60" as="geometry" />
        </mxCell>
        <mxCell id="r4bwIDTA7VvdV9TeNddE-2" value="" style="shape=umlBoundary;whiteSpace=wrap;html=1;" vertex="1" parent="1">
          <mxGeometry x="300" y="80" width="60" height="50" as="geometry" />
        </mxCell>
        <mxCell id="r4bwIDTA7VvdV9TeNddE-3" value="" style="ellipse;shape=umlControl;whiteSpace=wrap;html=1;" vertex="1" parent="1">
          <mxGeometry x="500" y="70" width="50" height="60" as="geometry" />
        </mxCell>
        <mxCell id="r4bwIDTA7VvdV9TeNddE-4" value="" style="ellipse;shape=umlControl;whiteSpace=wrap;html=1;" vertex="1" parent="1">
          <mxGeometry x="702.5" y="70" width="50" height="60" as="geometry" />
        </mxCell>
        <mxCell id="r4bwIDTA7VvdV9TeNddE-5" value="" style="ellipse;shape=umlEntity;whiteSpace=wrap;html=1;" vertex="1" parent="1">
          <mxGeometry x="900" y="80" width="50" height="50" as="geometry" />
        </mxCell>
        <mxCell id="r4bwIDTA7VvdV9TeNddE-8" value="" style="endArrow=none;dashed=1;html=1;dashPattern=1 3;strokeWidth=2;" edge="1" parent="1" source="r4bwIDTA7VvdV9TeNddE-26">
          <mxGeometry width="50" height="50" relative="1" as="geometry">
            <mxPoint x="134.5" y="710" as="sourcePoint" />
            <mxPoint x="134.5" y="190" as="targetPoint" />
          </mxGeometry>
        </mxCell>
        <mxCell id="r4bwIDTA7VvdV9TeNddE-16" value="W: GiaoDienDangNhap" style="text;html=1;strokeColor=none;fillColor=none;align=center;verticalAlign=middle;whiteSpace=wrap;rounded=0;" vertex="1" parent="1">
          <mxGeometry x="270" y="140" width="130" height="20" as="geometry" />
        </mxCell>
        <mxCell id="r4bwIDTA7VvdV9TeNddE-19" value=":DieuKhienDangNhap" style="text;html=1;strokeColor=none;fillColor=none;align=center;verticalAlign=middle;whiteSpace=wrap;rounded=0;" vertex="1" parent="1">
          <mxGeometry x="460" y="140" width="130" height="20" as="geometry" />
        </mxCell>
        <mxCell id="r4bwIDTA7VvdV9TeNddE-20" value=":DieuKhienXacThuc" style="text;html=1;strokeColor=none;fillColor=none;align=center;verticalAlign=middle;whiteSpace=wrap;rounded=0;" vertex="1" parent="1">
          <mxGeometry x="670" y="140" width="115" height="20" as="geometry" />
        </mxCell>
        <mxCell id="r4bwIDTA7VvdV9TeNddE-21" value=":TrangChu" style="text;html=1;strokeColor=none;fillColor=none;align=center;verticalAlign=middle;whiteSpace=wrap;rounded=0;" vertex="1" parent="1">
          <mxGeometry x="867.5" y="140" width="115" height="20" as="geometry" />
        </mxCell>
        <mxCell id="r4bwIDTA7VvdV9TeNddE-23" value="" style="html=1;verticalAlign=bottom;endArrow=block;" edge="1" parent="1">
          <mxGeometry width="80" relative="1" as="geometry">
            <mxPoint x="340" y="272" as="sourcePoint" />
            <mxPoint x="340" y="272" as="targetPoint" />
          </mxGeometry>
        </mxCell>
        <mxCell id="r4bwIDTA7VvdV9TeNddE-26" value="" style="html=1;points=[];perimeter=orthogonalPerimeter;" vertex="1" parent="1">
          <mxGeometry x="130" y="190" width="10" height="500" as="geometry" />
        </mxCell>
        <mxCell id="r4bwIDTA7VvdV9TeNddE-27" value="" style="endArrow=none;dashed=1;html=1;dashPattern=1 3;strokeWidth=2;" edge="1" parent="1" target="r4bwIDTA7VvdV9TeNddE-26">
          <mxGeometry width="50" height="50" relative="1" as="geometry">
            <mxPoint x="134.5" y="710" as="sourcePoint" />
            <mxPoint x="134.5" y="190" as="targetPoint" />
          </mxGeometry>
        </mxCell>
        <mxCell id="r4bwIDTA7VvdV9TeNddE-29" value="nhapThongTin(taikhoan, matkhau)" style="html=1;verticalAlign=bottom;endArrow=block;" edge="1" parent="1">
          <mxGeometry width="80" relative="1" as="geometry">
            <mxPoint x="142" y="270" as="sourcePoint" />
            <mxPoint x="329" y="270" as="targetPoint" />
          </mxGeometry>
        </mxCell>
        <mxCell id="r4bwIDTA7VvdV9TeNddE-31" value="clickSubmit()" style="html=1;verticalAlign=bottom;endArrow=block;" edge="1" parent="1">
          <mxGeometry x="-0.0526" width="80" relative="1" as="geometry">
            <mxPoint x="140" y="322" as="sourcePoint" />
            <mxPoint x="330" y="322" as="targetPoint" />
            <mxPoint as="offset" />
          </mxGeometry>
        </mxCell>
        <mxCell id="r4bwIDTA7VvdV9TeNddE-34" value="chonLoaiTaiKhoan" style="html=1;verticalAlign=bottom;endArrow=block;exitX=1.1;exitY=0.04;exitDx=0;exitDy=0;exitPerimeter=0;entryX=-0.3;entryY=0.025;entryDx=0;entryDy=0;entryPerimeter=0;" edge="1" parent="1" source="r4bwIDTA7VvdV9TeNddE-26" target="r4bwIDTA7VvdV9TeNddE-37">
          <mxGeometry width="80" relative="1" as="geometry">
            <mxPoint x="190" y="210" as="sourcePoint" />
            <mxPoint x="330" y="210" as="targetPoint" />
          </mxGeometry>
        </mxCell>
        <mxCell id="r4bwIDTA7VvdV9TeNddE-36" value="" style="endArrow=none;dashed=1;html=1;dashPattern=1 3;strokeWidth=2;" edge="1" parent="1" source="r4bwIDTA7VvdV9TeNddE-37">
          <mxGeometry width="50" height="50" relative="1" as="geometry">
            <mxPoint x="334.5" y="690" as="sourcePoint" />
            <mxPoint x="334.5" y="170" as="targetPoint" />
          </mxGeometry>
        </mxCell>
        <mxCell id="r4bwIDTA7VvdV9TeNddE-37" value="" style="html=1;points=[];perimeter=orthogonalPerimeter;" vertex="1" parent="1">
          <mxGeometry x="330" y="210" width="10" height="40" as="geometry" />
        </mxCell>
        <mxCell id="r4bwIDTA7VvdV9TeNddE-38" value="" style="endArrow=none;dashed=1;html=1;dashPattern=1 3;strokeWidth=2;" edge="1" parent="1" source="r4bwIDTA7VvdV9TeNddE-39" target="r4bwIDTA7VvdV9TeNddE-37">
          <mxGeometry width="50" height="50" relative="1" as="geometry">
            <mxPoint x="334.5" y="690" as="sourcePoint" />
            <mxPoint x="334.5" y="170" as="targetPoint" />
          </mxGeometry>
        </mxCell>
        <mxCell id="r4bwIDTA7VvdV9TeNddE-39" value="" style="html=1;points=[];perimeter=orthogonalPerimeter;" vertex="1" parent="1">
          <mxGeometry x="330" y="260" width="10" height="40" as="geometry" />
        </mxCell>
        <mxCell id="r4bwIDTA7VvdV9TeNddE-40" value="" style="endArrow=none;dashed=1;html=1;dashPattern=1 3;strokeWidth=2;" edge="1" parent="1" source="r4bwIDTA7VvdV9TeNddE-41" target="r4bwIDTA7VvdV9TeNddE-39">
          <mxGeometry width="50" height="50" relative="1" as="geometry">
            <mxPoint x="334.5" y="690" as="sourcePoint" />
            <mxPoint x="334.5" y="250" as="targetPoint" />
          </mxGeometry>
        </mxCell>
        <mxCell id="r4bwIDTA7VvdV9TeNddE-41" value="" style="html=1;points=[];perimeter=orthogonalPerimeter;" vertex="1" parent="1">
          <mxGeometry x="330" y="320" width="10" height="240" as="geometry" />
        </mxCell>
        <mxCell id="r4bwIDTA7VvdV9TeNddE-42" value="" style="endArrow=none;dashed=1;html=1;dashPattern=1 3;strokeWidth=2;" edge="1" parent="1" target="r4bwIDTA7VvdV9TeNddE-41">
          <mxGeometry width="50" height="50" relative="1" as="geometry">
            <mxPoint x="334.5" y="690" as="sourcePoint" />
            <mxPoint x="334.5" y="300" as="targetPoint" />
          </mxGeometry>
        </mxCell>
        <mxCell id="r4bwIDTA7VvdV9TeNddE-43" value="dangNhap(email, matKhau)" style="html=1;verticalAlign=bottom;endArrow=block;" edge="1" parent="1">
          <mxGeometry x="-0.0526" width="80" relative="1" as="geometry">
            <mxPoint x="340" y="332" as="sourcePoint" />
            <mxPoint x="520" y="332" as="targetPoint" />
            <mxPoint as="offset" />
          </mxGeometry>
        </mxCell>
        <mxCell id="r4bwIDTA7VvdV9TeNddE-44" value="" style="html=1;points=[];perimeter=orthogonalPerimeter;" vertex="1" parent="1">
          <mxGeometry x="520" y="330" width="10" height="220" as="geometry" />
        </mxCell>
        <mxCell id="r4bwIDTA7VvdV9TeNddE-60" value="" style="endArrow=none;dashed=1;html=1;entryX=0.565;entryY=1.1;entryDx=0;entryDy=0;entryPerimeter=0;" edge="1" parent="1" source="r4bwIDTA7VvdV9TeNddE-63" target="r4bwIDTA7VvdV9TeNddE-20">
          <mxGeometry width="50" height="50" relative="1" as="geometry">
            <mxPoint x="740" y="691" as="sourcePoint" />
            <mxPoint x="730" y="150" as="targetPoint" />
            <Array as="points">
              <mxPoint x="735" y="290" />
            </Array>
          </mxGeometry>
        </mxCell>
        <mxCell id="r4bwIDTA7VvdV9TeNddE-61" value="" style="endArrow=none;dashed=1;html=1;" edge="1" parent="1">
          <mxGeometry width="50" height="50" relative="1" as="geometry">
            <mxPoint x="924.5" y="690" as="sourcePoint" />
            <mxPoint x="924.5" y="159" as="targetPoint" />
          </mxGeometry>
        </mxCell>
        <mxCell id="r4bwIDTA7VvdV9TeNddE-64" value="xacThuc(emai, matKhau)" style="html=1;verticalAlign=bottom;endArrow=block;" edge="1" parent="1">
          <mxGeometry relative="1" as="geometry">
            <mxPoint x="529" y="357" as="sourcePoint" />
            <mxPoint x="727" y="357" as="targetPoint" />
          </mxGeometry>
        </mxCell>
        <mxCell id="r4bwIDTA7VvdV9TeNddE-65" value="xacNhanDangNhapThanhCong()" style="html=1;verticalAlign=bottom;endArrow=open;dashed=1;endSize=8;exitX=-0.3;exitY=0.233;exitDx=0;exitDy=0;exitPerimeter=0;entryX=1.2;entryY=0.282;entryDx=0;entryDy=0;entryPerimeter=0;" edge="1" source="r4bwIDTA7VvdV9TeNddE-63" parent="1" target="r4bwIDTA7VvdV9TeNddE-44">
          <mxGeometry relative="1" as="geometry">
            <mxPoint x="532" y="427" as="targetPoint" />
          </mxGeometry>
        </mxCell>
        <mxCell id="r4bwIDTA7VvdV9TeNddE-63" value="" style="html=1;points=[];perimeter=orthogonalPerimeter;" vertex="1" parent="1">
          <mxGeometry x="730" y="350" width="10" height="180" as="geometry" />
        </mxCell>
        <mxCell id="r4bwIDTA7VvdV9TeNddE-66" value="" style="endArrow=none;dashed=1;html=1;entryX=0.4;entryY=1.038;entryDx=0;entryDy=0;entryPerimeter=0;" edge="1" parent="1" target="r4bwIDTA7VvdV9TeNddE-63">
          <mxGeometry width="50" height="50" relative="1" as="geometry">
            <mxPoint x="734" y="691" as="sourcePoint" />
            <mxPoint x="740" y="160" as="targetPoint" />
          </mxGeometry>
        </mxCell>
        <mxCell id="r4bwIDTA7VvdV9TeNddE-77" value="" style="endArrow=none;dashed=1;html=1;exitX=0.003;exitY=0.471;exitDx=0;exitDy=0;exitPerimeter=0;entryX=1;entryY=0.471;entryDx=0;entryDy=0;entryPerimeter=0;" edge="1" parent="1" source="r4bwIDTA7VvdV9TeNddE-70" target="r4bwIDTA7VvdV9TeNddE-70">
          <mxGeometry width="50" height="50" relative="1" as="geometry">
            <mxPoint x="431" y="440" as="sourcePoint" />
            <mxPoint x="770" y="425" as="targetPoint" />
          </mxGeometry>
        </mxCell>
        <mxCell id="r4bwIDTA7VvdV9TeNddE-78" value="thongBaoDangNhapThanhCong()" style="html=1;verticalAlign=bottom;endArrow=open;dashed=1;endSize=8;exitX=0;exitY=0.95;" edge="1" parent="1">
          <mxGeometry relative="1" as="geometry">
            <mxPoint x="340" y="408" as="targetPoint" />
            <mxPoint x="520" y="408" as="sourcePoint" />
          </mxGeometry>
        </mxCell>
        <mxCell id="r4bwIDTA7VvdV9TeNddE-79" value="dangNhapThatBai()" style="html=1;verticalAlign=bottom;endArrow=open;dashed=1;endSize=8;exitX=-0.4;exitY=0.611;exitDx=0;exitDy=0;exitPerimeter=0;" edge="1" parent="1" source="r4bwIDTA7VvdV9TeNddE-63">
          <mxGeometry relative="1" as="geometry">
            <mxPoint x="530" y="462" as="targetPoint" />
            <mxPoint x="726" y="450" as="sourcePoint" />
          </mxGeometry>
        </mxCell>
        <mxCell id="r4bwIDTA7VvdV9TeNddE-80" value="thongBaoDangNhapThatBai()" style="html=1;verticalAlign=bottom;endArrow=open;dashed=1;endSize=8;entryX=1.1;entryY=0.505;entryDx=0;entryDy=0;entryPerimeter=0;" edge="1" parent="1">
          <mxGeometry relative="1" as="geometry">
            <mxPoint x="340" y="480" as="targetPoint" />
            <mxPoint x="525" y="480" as="sourcePoint" />
          </mxGeometry>
        </mxCell>
        <mxCell id="r4bwIDTA7VvdV9TeNddE-82" value="" style="endArrow=open;endFill=1;endSize=12;html=1;" edge="1" parent="1" target="r4bwIDTA7VvdV9TeNddE-89">
          <mxGeometry width="160" relative="1" as="geometry">
            <mxPoint x="530" y="420" as="sourcePoint" />
            <mxPoint x="920" y="420" as="targetPoint" />
          </mxGeometry>
        </mxCell>
        <mxCell id="r4bwIDTA7VvdV9TeNddE-85" value="redirect()" style="text;html=1;strokeColor=none;fillColor=none;align=center;verticalAlign=middle;whiteSpace=wrap;rounded=0;" vertex="1" parent="1">
          <mxGeometry x="604" y="404" width="40" height="16" as="geometry" />
        </mxCell>
        <mxCell id="r4bwIDTA7VvdV9TeNddE-89" value="" style="html=1;points=[];perimeter=orthogonalPerimeter;" vertex="1" parent="1">
          <mxGeometry x="915" y="420" width="10" height="40" as="geometry" />
        </mxCell>
        <mxCell id="r4bwIDTA7VvdV9TeNddE-91" value="" style="endArrow=open;endFill=1;endSize=12;html=1;exitX=-0.3;exitY=0.786;exitDx=0;exitDy=0;exitPerimeter=0;" edge="1" parent="1" source="r4bwIDTA7VvdV9TeNddE-44" target="r4bwIDTA7VvdV9TeNddE-41">
          <mxGeometry width="160" relative="1" as="geometry">
            <mxPoint x="540" y="430" as="sourcePoint" />
            <mxPoint x="925" y="430" as="targetPoint" />
          </mxGeometry>
        </mxCell>
        <mxCell id="r4bwIDTA7VvdV9TeNddE-94" value="redirect()" style="text;html=1;strokeColor=none;fillColor=none;align=center;verticalAlign=middle;whiteSpace=wrap;rounded=0;" vertex="1" parent="1">
          <mxGeometry x="416" y="486" width="40" height="17" as="geometry" />
        </mxCell>
      </root>
    </mxGraphModel>
  </diagram>
</mxfile>
